<svg width="32" height="32" viewBox="0 0 200 200" xmlns="http://www.w3.org/2000/svg">
  <defs>
    <linearGradient id="starGradient" x1="0%" y1="0%" x2="100%" y2="100%">
      <stop offset="0%" stop-color="#1e3a8a" />
      <stop offset="25%" stop-color="#1e40af" />
      <stop offset="50%" stop-color="#0891b2" />
      <stop offset="75%" stop-color="#14b8a6" />
      <stop offset="100%" stop-color="#10b981" />
    </linearGradient>
    <radialGradient id="starGlow" cx="50%" cy="50%">
      <stop offset="0%" stop-color="#ffffff" />
      <stop offset="30%" stop-color="#60a5fa" />
      <stop offset="60%" stop-color="#3b82f6" />
      <stop offset="100%" stop-color="#1e40af" />
    </radialGradient>
    <filter id="glow">
      <feGaussianBlur stdDeviation="2" result="coloredBlur"/>
      <feMerge>
        <feMergeNode in="coloredBlur"/>
        <feMergeNode in="SourceGraphic"/>
      </feMerge>
    </filter>
  </defs>
  
  <!-- White Circle Background -->
  <circle cx="100" cy="100" r="90" fill="white" stroke="#3b82f6" stroke-width="2"/>
  
  <!-- Outer dots (8 dots) -->
  <circle cx="100" cy="32" r="6" fill="#0369a1" opacity="0.8"/>
  <circle cx="170.71" cy="68" r="6" fill="#0369a1" opacity="0.8"/>
  <circle cx="170.71" cy="132" r="6" fill="#0369a1" opacity="0.8"/>
  <circle cx="100" cy="168" r="6" fill="#0369a1" opacity="0.8"/>
  <circle cx="29.29" cy="132" r="6" fill="#0369a1" opacity="0.8"/>
  <circle cx="29.29" cy="68" r="6" fill="#0369a1" opacity="0.8"/>
  <circle cx="68" cy="29.29" r="6" fill="#0369a1" opacity="0.8"/>
  <circle cx="132" cy="29.29" r="6" fill="#0369a1" opacity="0.8"/>
  
  <!-- Inner spokes (8 spokes) -->
  <line x1="100" y1="100" x2="100" y2="40" stroke="url(#starGradient)" stroke-width="2.5" stroke-linecap="round"/>
  <circle cx="100" cy="40" r="4" fill="#10b981"/>
  
  <line x1="100" y1="100" x2="160" y2="100" stroke="url(#starGradient)" stroke-width="2.5" stroke-linecap="round"/>
  <circle cx="160" cy="100" r="4" fill="#10b981"/>
  
  <line x1="100" y1="100" x2="100" y2="160" stroke="url(#starGradient)" stroke-width="2.5" stroke-linecap="round"/>
  <circle cx="100" cy="160" r="4" fill="#10b981"/>
  
  <line x1="100" y1="100" x2="40" y2="100" stroke="url(#starGradient)" stroke-width="2.5" stroke-linecap="round"/>
  <circle cx="40" cy="100" r="4" fill="#10b981"/>
  
  <line x1="100" y1="100" x2="141.42" y2="58.58" stroke="url(#starGradient)" stroke-width="2.5" stroke-linecap="round"/>
  <circle cx="141.42" cy="58.58" r="4" fill="#10b981"/>
  
  <line x1="100" y1="100" x2="141.42" y2="141.42" stroke="url(#starGradient)" stroke-width="2.5" stroke-linecap="round"/>
  <circle cx="141.42" cy="141.42" r="4" fill="#10b981"/>
  
  <line x1="100" y1="100" x2="58.58" y2="141.42" stroke="url(#starGradient)" stroke-width="2.5" stroke-linecap="round"/>
  <circle cx="58.58" cy="141.42" r="4" fill="#10b981"/>
  
  <line x1="100" y1="100" x2="58.58" y2="58.58" stroke="url(#starGradient)" stroke-width="2.5" stroke-linecap="round"/>
  <circle cx="58.58" cy="58.58" r="4" fill="#10b981"/>
  
  <!-- Center Starfish Design -->
  <g transform="translate(100 100)">
    <!-- Center glow background -->
    <circle cx="0" cy="0" r="12" fill="url(#starGlow)" opacity="0.8" filter="url(#glow)"/>
    
    <!-- Starfish arms - 5 pointed -->
    <path d="M 0,0 L 1,-6 L 2,-7 L 2.5,-8 L 2,-9 L 1,-9.5 L 0,-10 L -1,-9.5 L -2,-9 L -2.5,-8 L -2,-7 L -1,-6 Z" fill="white" opacity="0.95" transform="rotate(0)"/>
    <path d="M 0,0 L 1,-6 L 2,-7 L 2.5,-8 L 2,-9 L 1,-9.5 L 0,-10 L -1,-9.5 L -2,-9 L -2.5,-8 L -2,-7 L -1,-6 Z" fill="white" opacity="0.95" transform="rotate(72)"/>
    <path d="M 0,0 L 1,-6 L 2,-7 L 2.5,-8 L 2,-9 L 1,-9.5 L 0,-10 L -1,-9.5 L -2,-9 L -2.5,-8 L -2,-7 L -1,-6 Z" fill="white" opacity="0.95" transform="rotate(144)"/>
    <path d="M 0,0 L 1,-6 L 2,-7 L 2.5,-8 L 2,-9 L 1,-9.5 L 0,-10 L -1,-9.5 L -2,-9 L -2.5,-8 L -2,-7 L -1,-6 Z" fill="white" opacity="0.95" transform="rotate(216)"/>
    <path d="M 0,0 L 1,-6 L 2,-7 L 2.5,-8 L 2,-9 L 1,-9.5 L 0,-10 L -1,-9.5 L -2,-9 L -2.5,-8 L -2,-7 L -1,-6 Z" fill="white" opacity="0.95" transform="rotate(288)"/>
    
    <!-- Center hexagon -->
    <path d="M 0,-3 L 2.6,-1.5 L 2.6,1.5 L 0,3 L -2.6,1.5 L -2.6,-1.5 Z" fill="url(#starGlow)" stroke="white" stroke-width="0.8" opacity="0.9"/>
    
    <!-- Center bright core -->
    <circle cx="0" cy="0" r="2" fill="white"/>
  </g>
</svg>
